<?xml version="1.0" standalone="no"?><!DOCTYPE svg PUBLIC "-//W3C//DTD SVG 1.1//EN" "http://www.w3.org/Graphics/SVG/1.1/DTD/svg11.dtd"><svg t="1606108031478" class="icon" viewBox="0 0 1024 1024" version="1.1" xmlns="http://www.w3.org/2000/svg" p-id="1060" xmlns:xlink="http://www.w3.org/1999/xlink" width="200" height="200"><defs><style type="text/css"></style></defs><path d="M984.544 604.736l38.944-95.168-38.944-92.896V315.904L911.808 243.2l-39.744-94.848-93.248-38.144-71.232-71.264h-102.848L509.568 0l-92.896 38.944H315.904L243.2 111.648 148.352 151.424 110.208 244.672 38.944 315.904v102.816L0 513.888l38.944 92.928v100.768l72.704 72.704 39.776 94.848 93.248 38.144 71.232 71.264h102.848l95.136 38.944 92.928-38.944h100.768l72.704-72.736 94.848-39.744 38.144-93.248 71.264-71.232z" fill="#F0D04D" p-id="1061"></path><path d="M685.92 197.888A1280.352 1280.352 0 0 0 228.768 878.176a662.72 662.72 0 0 0 44.96-16.096A1280.544 1280.544 0 0 1 688.032 253.536a649.792 649.792 0 0 0-2.112-55.648z" fill="#B18C25" p-id="1062"></path><path d="M569.312 472a448.608 448.608 0 0 0 230.08-68.64 450.24 450.24 0 0 0-28.8-270.016C496.448 223.104 310.848 477.856 305.376 762.464c44.416 5.088 90.304 3.648 136.512-5.216 151.904-29.12 271.264-131.232 328.832-263.04a683.968 683.968 0 0 1-201.408-22.208z" fill="#FFFFFF" p-id="1063"></path><path d="M356.512 775.616c-17.408 0-35.008-0.992-52.32-2.976l-9.248-1.056 0.192-9.312A686.4 686.4 0 0 1 767.392 123.648l8.832-2.912 3.712 8.544c13.728 31.552 23.936 64.416 30.336 97.76 11.36 59.36 11.072 119.36-0.864 178.368l-0.864 4.288-3.712 2.336a457.12 457.12 0 0 1-157.824 62.112c-3.296 0.64-6.592 1.216-9.888 1.792 43.872 7.04 88.608 9.76 133.216 8.032l16.288-0.64-6.528 14.944a461.856 461.856 0 0 1-423.584 277.344z m-40.672-22.368a441.632 441.632 0 0 0 438.72-248.384c-3.456 0.064-6.912 0.064-10.368 0.064-59.968 0-119.712-7.744-177.536-23.072l-70.336-18.624 72.736-1.504a436.896 436.896 0 0 0 221.12-64.736c10.592-55.008 10.56-110.88-0.032-166.144a443.392 443.392 0 0 0-25.344-84.8A666.112 666.112 0 0 0 315.84 753.248z" fill="#CFA41E" p-id="1064"></path><path d="M375.68 775.616c-17.408 0-35.008-0.992-52.32-2.976l-9.248-1.056 0.192-9.312A686.496 686.496 0 0 1 786.56 123.616l8.832-2.912 3.712 8.544c13.728 31.52 23.936 64.416 30.336 97.76 11.36 59.328 11.072 119.36-0.864 178.368l-0.864 4.288-3.712 2.336a457.12 457.12 0 0 1-157.824 62.112c-3.296 0.64-6.592 1.216-9.888 1.792a682.848 682.848 0 0 0 133.216 8.064l16.288-0.64-6.528 14.944a461.856 461.856 0 0 1-423.584 277.344z m-40.704-22.368a441.632 441.632 0 0 0 438.72-248.384 694.976 694.976 0 0 1-187.872-23.008l-70.336-18.624 72.736-1.504a436.896 436.896 0 0 0 221.12-64.736 437.664 437.664 0 0 0-0.032-166.144 443.392 443.392 0 0 0-25.344-84.8 666.144 666.144 0 0 0-448.992 607.2z" fill="#B18C25" p-id="1065"></path><path d="M770.592 133.344a450.24 450.24 0 0 1 28.8 270.016 447.424 447.424 0 0 1-230.08 68.64c30.592 8.096 61.888 14.112 93.696 17.888 35.36 4.224 71.36 5.696 107.712 4.32-57.568 131.776-176.928 233.92-328.832 263.04a450.976 450.976 0 0 1-136.512 5.216c5.472-284.608 191.072-539.36 465.216-629.12" fill="#FFFFFF" p-id="1066"></path><path d="M356.512 775.616c-17.408 0-35.008-0.992-52.32-2.976l-9.248-1.056 0.192-9.312A686.4 686.4 0 0 1 767.392 123.648l28-2.912-15.424 8.544c13.728 31.52 23.936 64.416 30.336 97.76 11.36 59.328 11.072 119.36-0.864 178.368l-0.864 4.288-3.712 2.336a457.12 457.12 0 0 1-157.824 62.112c-3.296 0.64-6.592 1.216-9.888 1.792a682.848 682.848 0 0 0 133.216 8.064l16.288-0.64-6.528 14.944a461.856 461.856 0 0 1-423.616 277.312z m-40.672-22.368a441.632 441.632 0 0 0 438.72-248.384 694.976 694.976 0 0 1-187.872-23.008l-70.336-18.624 72.736-1.504a436.896 436.896 0 0 0 221.12-64.736 437.664 437.664 0 0 0-0.032-166.144 443.392 443.392 0 0 0-25.344-84.8A666.08 666.08 0 0 0 315.84 753.248z" fill="#B18C25" p-id="1067"></path><path d="M703.648 218.976c-203.68 172.48-361.472 392.832-458.72 653.856l78.624-30.016c75.328-238.688 186.144-416.192 380.64-573.856 0.064-18.432 0.928-31.36-0.544-49.984z" fill="#B18C25" p-id="1068"></path><path d="M702.08 192.544A1280.224 1280.224 0 0 0 244.928 872.8a662.72 662.72 0 0 0 44.96-16.096A1280.544 1280.544 0 0 1 704.192 248.16c0.064-18.432-0.64-36.992-2.112-55.616z" fill="#EDEEEE" p-id="1069"></path></svg>