<?xml version="1.0" standalone="no"?><!DOCTYPE svg PUBLIC "-//W3C//DTD SVG 1.1//EN" "http://www.w3.org/Graphics/SVG/1.1/DTD/svg11.dtd"><svg t="1606110948961" class="icon" viewBox="0 0 1024 1024" version="1.1" xmlns="http://www.w3.org/2000/svg" p-id="1060" xmlns:xlink="http://www.w3.org/1999/xlink" width="200" height="200"><defs><style type="text/css"></style></defs><path d="M933.668571 512A140.434286 140.434286 0 0 1 1024 381.074286a525.531429 525.531429 0 0 0-57.417143-138.605715 140.068571 140.068571 0 0 1-185.051428-185.051428A512 512 0 0 0 642.925714 0 140.8 140.8 0 0 1 512 90.331429 140.434286 140.434286 0 0 1 381.074286 0a512 512 0 0 0-138.605715 57.417143 140.068571 140.068571 0 0 1-185.051428 185.051428A512 512 0 0 0 0 381.074286 140.8 140.8 0 0 1 90.331429 512 140.434286 140.434286 0 0 1 0 642.925714a512 512 0 0 0 57.417143 138.605715 140.068571 140.068571 0 0 1 185.051428 185.051428A525.531429 525.531429 0 0 0 381.074286 1024a140.068571 140.068571 0 0 1 261.851428 0 525.531429 525.531429 0 0 0 138.605715-57.417143 140.068571 140.068571 0 0 1 185.051428-185.051428A525.531429 525.531429 0 0 0 1024 642.925714 140.434286 140.434286 0 0 1 933.668571 512zM512 652.434286A140.434286 140.434286 0 1 1 652.434286 512 140.434286 140.434286 0 0 1 512 652.434286z" fill="#707070" p-id="1061"></path></svg>